<svg width="24" height="24" viewBox="0 0 24 24" fill="none" xmlns="http://www.w3.org/2000/svg">
<path d="M22 4.66993V16.7399C22 17.6999 21.22 18.5999 20.26 18.7199L19.93 18.76C17.75 19.05 14.39 20.1599 12.47 21.2199C12.21 21.3699 11.78 21.3699 11.51 21.2199L11.47 21.2C9.54997 20.15 6.20003 19.05 4.03003 18.76L3.73999 18.7199C2.77999 18.5999 2 17.6999 2 16.7399V4.65992C2 3.46992 2.96997 2.56993 4.15997 2.66993C6.25997 2.83993 9.43997 3.89996 11.22 5.00996L11.47 5.15992C11.76 5.33992 12.24 5.33992 12.53 5.15992L12.7 5.04993C13.33 4.65993 14.13 4.26993 15 3.91993V7.99995L17 6.66993L19 7.99995V2.77998C19.27 2.72998 19.53 2.69994 19.77 2.67994H19.83C21.02 2.57994 22 3.46993 22 4.66993Z" stroke="#333333" stroke-width="2" stroke-linecap="round" stroke-linejoin="round"/>
<path d="M12 5.48991V20.4899" stroke="#333333" stroke-width="2" stroke-linecap="round" stroke-linejoin="round"/>
<path d="M19 2.77995V7.99992L17 6.66991L15 7.99992V3.91991C16.31 3.39991 17.77 2.97995 19 2.77995Z" stroke="#333333" stroke-width="2" stroke-linecap="round" stroke-linejoin="round"/>
</svg>
