<svg width="24" height="24" viewBox="0 0 24 24" fill="none" xmlns="http://www.w3.org/2000/svg">
<path d="M21.97 18.3299C21.97 18.6899 21.89 19.0599 21.72 19.4199C21.55 19.7799 21.33 20.1199 21.04 20.4399C20.55 20.9799 20.01 21.3699 19.4 21.6199C18.8 21.8699 18.15 21.9999 17.45 21.9999C16.43 21.9999 15.34 21.7599 14.19 21.2699C13.04 20.7799 11.89 20.1199 10.75 19.2899C9.6 18.4499 8.51 17.5199 7.47 16.4899C6.44 15.4499 5.51 14.3599 4.68 13.2199C3.86 12.0799 3.2 10.9399 2.72 9.80992C2.24 8.66992 2 7.57992 2 6.53992C2 5.85992 2.12 5.20992 2.36 4.60992C2.6 3.99992 2.98 3.43992 3.51 2.93992C4.15 2.30992 4.85 1.99992 5.59 1.99992C5.87 1.99992 6.15 2.05992 6.4 2.17992C6.66 2.29992 6.89 2.47992 7.07 2.73992L9.39 6.00992C9.57 6.25992 9.7 6.48992 9.79 6.70992C9.88 6.91992 9.93 7.12992 9.93 7.31992C9.93 7.55992 9.86 7.79992 9.72 8.02992C9.59 8.25992 9.4 8.49992 9.16 8.73992L8.4 9.52992C8.29 9.63992 8.24 9.76992 8.24 9.92992C8.24 10.0099 8.25 10.0799 8.27 10.1599C8.3 10.2399 8.33 10.2999 8.35 10.3599C8.53 10.6899 8.84 11.1199 9.28 11.6399C9.73 12.1599 10.21 12.6899 10.73 13.2199C11.27 13.7499 11.79 14.2399 12.32 14.6899C12.84 15.1299 13.27 15.4299 13.61 15.6099C13.66 15.6299 13.72 15.6599 13.79 15.6899C13.87 15.7199 13.95 15.7299 14.04 15.7299C14.21 15.7299 14.34 15.6699 14.45 15.5599L15.21 14.8099C15.46 14.5599 15.7 14.3699 15.93 14.2499C16.16 14.1099 16.39 14.0399 16.64 14.0399C16.83 14.0399 17.03 14.0799 17.25 14.1699C17.47 14.2599 17.7 14.3899 17.95 14.5599L21.26 16.9099C21.52 17.0899 21.7 17.2999 21.81 17.5499C21.91 17.7999 21.97 18.0499 21.97 18.3299Z" stroke="#333333" stroke-width="2" stroke-miterlimit="10"/>
</svg>
