<svg width="24" height="24" viewBox="0 0 24 24" fill="none" xmlns="http://www.w3.org/2000/svg">
<path d="M9.15722 20.7713V17.7046C9.1572 16.9246 9.79312 16.2908 10.581 16.2855H13.4671C14.2587 16.2855 14.9005 16.9209 14.9005 17.7046V17.7046V20.7808C14.9003 21.4431 15.4343 21.9844 16.103 21.9999H18.0271C19.9451 21.9999 21.5 20.4606 21.5 18.5618V18.5618V9.83776C21.4898 9.09075 21.1355 8.38927 20.538 7.93296L13.9577 2.68522C12.8049 1.77149 11.1662 1.77149 10.0134 2.68522L3.46203 7.94248C2.86226 8.39695 2.50739 9.09959 2.5 9.84728V18.5618C2.5 20.4606 4.05488 21.9999 5.97291 21.9999H7.89696C8.58235 21.9999 9.13797 21.4499 9.13797 20.7713V20.7713" stroke="#333333" stroke-width="2" stroke-linecap="round" stroke-linejoin="round"/>
</svg>
