<svg width="228" height="44" viewBox="0 0 228 44" fill="none" xmlns="http://www.w3.org/2000/svg">
<g clip-path="url(#clip0_1_577)">
<path d="M85.4356 22.0308C85.4356 27.7722 80.7754 32.4264 75.0272 32.4264C69.279 32.4264 64.6188 27.7722 64.6188 22.0308C64.6176 20.8585 64.8151 19.6944 65.203 18.588C65.2955 18.3259 65.3977 18.0686 65.5096 17.8163C65.6365 17.5933 65.7887 17.3857 65.9634 17.1976C66.6822 16.4203 67.7966 15.9209 69.0469 15.9209C69.0784 15.9209 69.1073 15.9209 69.1369 15.9209L69.2268 15.9241L69.2762 15.926C69.3249 15.9288 69.374 15.9319 69.4224 15.9357L69.4573 15.9382C69.5139 15.9432 69.5702 15.9498 69.6265 15.9564L69.678 15.964C69.7192 15.9699 69.7604 15.9756 69.8013 15.9825L69.8538 15.9916L69.8598 15.9932C69.9066 16.0013 69.9541 16.0105 69.9997 16.0205L70.0117 16.0227C70.0154 16.0234 70.0191 16.0243 70.0227 16.0255L70.0346 16.028L70.0456 16.0306C70.0538 16.0321 70.0623 16.0346 70.0705 16.0365L70.1066 16.045C70.1173 16.0472 70.1271 16.05 70.1381 16.0522L70.1695 16.0601C70.1755 16.0601 70.1812 16.0632 70.1871 16.0648C70.2069 16.0692 70.2264 16.0742 70.2456 16.0796C70.2802 16.0893 70.3142 16.0993 70.3478 16.1094L70.3579 16.1125C70.3821 16.1198 70.4054 16.127 70.4293 16.1348L70.4547 16.1427L70.4953 16.1562C70.5245 16.1662 70.5535 16.1769 70.5827 16.1876C70.5943 16.1917 70.6066 16.1958 70.6186 16.2005L70.645 16.2105C70.7195 16.2391 70.7931 16.2692 70.8651 16.3016L70.8862 16.3107L70.9098 16.3217C72.1383 16.887 72.9732 17.9963 72.9732 19.2717C72.9732 19.3031 72.9732 19.3323 72.9732 19.3628C72.465 18.7573 71.7635 18.3826 70.9887 18.3826C69.7101 18.3826 68.6303 19.403 68.2925 20.7981C68.2881 20.8163 68.2841 20.8342 68.2797 20.8524C68.2771 20.8653 68.274 20.8778 68.2712 20.8907C68.211 21.1677 68.1809 21.4503 68.1812 21.7337C68.1812 21.7575 68.1812 21.7811 68.1812 21.805C68.1812 21.8204 68.1812 21.8364 68.1812 21.8515V21.8559C68.1812 21.8769 68.1812 21.8979 68.1812 21.9187C68.1812 21.9479 68.1812 21.9771 68.1812 22.0066V22.0295C68.1812 25.8065 71.2472 28.8686 75.0288 28.8686C78.8104 28.8686 81.8766 25.8065 81.8766 22.0295C81.8766 18.2526 78.8088 15.1907 75.0269 15.1907C74.251 15.1896 73.4807 15.3208 72.749 15.5786L72.7003 15.5331C72.6688 15.5017 72.6336 15.4731 72.5993 15.4439C72.582 15.4291 72.5647 15.4147 72.5471 15.4005C72.4955 15.3581 72.443 15.317 72.3899 15.2768C72.3641 15.2576 72.3386 15.2394 72.3125 15.2218C72.2864 15.2042 72.26 15.1848 72.2336 15.1675L72.1625 15.1213L72.154 15.116C72.1503 15.1134 72.1464 15.111 72.1424 15.1088L72.0751 15.0676C72.0484 15.0513 72.0217 15.0362 71.9943 15.0208L71.9673 15.0058L71.8836 14.9605L71.828 14.932C71.8271 14.9311 71.826 14.9305 71.8248 14.9301L71.8069 14.9213L71.7861 14.9109L71.7669 14.9009C71.7519 14.8936 71.7355 14.8861 71.7217 14.8798C71.7003 14.8695 71.6786 14.8594 71.6569 14.8484L71.6512 14.8459C71.644 14.8424 71.6371 14.8399 71.6302 14.8365C71.6285 14.8355 71.6267 14.8346 71.6248 14.834C71.6028 14.8242 71.5814 14.8148 71.5591 14.8057C71.5536 14.8029 71.548 14.8006 71.5421 14.7988V14.7988C71.525 14.7908 71.5075 14.7836 71.4896 14.7774L71.4805 14.7737C71.4595 14.7653 71.4391 14.7574 71.4192 14.7501L71.3877 14.7385C71.3667 14.7303 71.3456 14.7228 71.3248 14.7152C71.3163 14.7118 71.3075 14.709 71.299 14.7061C71.2906 14.7033 71.277 14.6986 71.266 14.6951C71.255 14.6917 71.2431 14.6876 71.2314 14.6838C71.2301 14.6835 71.2287 14.6835 71.2273 14.6838C71.2249 14.6825 71.2222 14.6815 71.2195 14.681L71.2123 14.6788C71.2102 14.6777 71.208 14.677 71.2057 14.6769C71.1833 14.6691 71.1601 14.6619 71.1374 14.6556L71.1318 14.6537L71.1217 14.6506L71.0399 14.6267L70.9811 14.6113C70.9629 14.606 70.9446 14.6012 70.9258 14.5972L70.8629 14.5818L70.8465 14.5777C70.8409 14.5761 70.8352 14.5752 70.8296 14.5739C70.8123 14.5698 70.795 14.5661 70.777 14.5626C70.7697 14.5607 70.7625 14.5592 70.7553 14.5579L70.7274 14.5526C70.7142 14.5494 70.7013 14.5466 70.6881 14.5444H70.6799L70.6695 14.5422C70.6516 14.5384 70.6333 14.5353 70.6151 14.5325L70.6 14.53L70.5283 14.5183L70.4881 14.512L70.4481 14.5061H70.4462C70.3925 14.4982 70.3374 14.4923 70.2827 14.4872C70.2705 14.4854 70.2576 14.4847 70.245 14.4838H70.228L70.1651 14.4788L70.1211 14.4756L70.0698 14.4728H70.0362C70.0337 14.4731 70.0312 14.4731 70.0287 14.4728C69.9617 14.4696 69.8941 14.4684 69.8265 14.4684C68.5815 14.4684 67.4718 14.963 66.753 15.7344C68.6548 13.2464 71.655 11.6415 75.0307 11.6415C80.7754 11.6352 85.4356 16.29 85.4356 22.0308Z" fill="#1F294E"/>
<path d="M206.795 22.0408C206.795 27.7766 202.139 32.4264 196.396 32.4264C190.654 32.4264 185.998 27.7782 185.998 22.0408C185.997 20.8696 186.194 19.7066 186.582 18.6012C186.674 18.3392 186.776 18.0823 186.888 17.8305C187.015 17.6077 187.167 17.4003 187.341 17.2124C188.059 16.4357 189.173 15.937 190.423 15.937C190.454 15.937 190.483 15.937 190.513 15.937L190.603 15.9401L190.652 15.942C190.7 15.9445 190.749 15.9479 190.798 15.9514L190.833 15.9542C190.889 15.9593 190.945 15.9655 191.002 15.9724L191.053 15.9797C191.094 15.9856 191.135 15.9916 191.176 15.9985C191.194 16.0017 191.211 16.0042 191.229 16.0076H191.235C191.282 16.0158 191.329 16.0249 191.375 16.0349L191.387 16.0371L191.398 16.04L191.409 16.0428L191.42 16.045L191.445 16.051L191.481 16.0594L191.513 16.0667L191.544 16.0745L191.562 16.0792C191.582 16.0836 191.601 16.0886 191.62 16.094C191.655 16.1037 191.689 16.1138 191.723 16.1238L191.733 16.127C191.757 16.1342 191.78 16.1414 191.804 16.1493C191.813 16.1521 191.821 16.1543 191.83 16.1571L191.87 16.1706C191.899 16.1807 191.928 16.191 191.957 16.202C191.969 16.2061 191.981 16.2102 191.993 16.2146C192.005 16.219 192.01 16.2215 192.02 16.2246C192.094 16.2535 192.167 16.2834 192.24 16.3157L192.261 16.3248L192.285 16.3358C193.511 16.9011 194.346 18.0088 194.346 19.283C194.346 19.3144 194.346 19.3436 194.346 19.3741C193.838 18.7692 193.137 18.3948 192.363 18.3948C191.086 18.3948 190.008 19.4143 189.67 20.8081C189.665 20.8263 189.661 20.8439 189.657 20.8621C189.654 20.875 189.651 20.8879 189.648 20.9005C189.588 21.1772 189.558 21.4596 189.558 21.7428C189.558 21.7663 189.558 21.7902 189.558 21.8138C189.558 21.8295 189.558 21.8452 189.56 21.8602V21.8649C189.56 21.8859 189.56 21.9068 189.56 21.9278C189.56 21.957 189.56 21.9862 189.56 22.0157V22.0386C189.56 25.8121 192.623 28.8711 196.401 28.8711C200.179 28.8711 203.242 25.8121 203.242 22.0386C203.242 18.2651 200.179 15.2058 196.401 15.2058C195.626 15.2052 194.857 15.3362 194.125 15.5934C194.109 15.578 194.094 15.562 194.076 15.5478C194.045 15.5164 194.01 15.4878 193.976 15.4586C193.959 15.4438 193.941 15.4293 193.924 15.4153C193.872 15.3729 193.82 15.3321 193.767 15.2919C193.741 15.2727 193.716 15.2545 193.69 15.2366C193.664 15.2187 193.637 15.1998 193.611 15.1826L193.54 15.1364L193.531 15.1311C193.528 15.1282 193.524 15.126 193.52 15.1238L193.453 15.0827C193.426 15.0664 193.399 15.0513 193.372 15.0359L193.345 15.0208L193.261 14.9756L193.206 14.947C193.205 14.9463 193.204 14.9456 193.203 14.9451C193.197 14.9426 193.191 14.9392 193.185 14.9367L193.164 14.926L193.145 14.9159C193.13 14.9087 193.113 14.9015 193.1 14.8952C193.078 14.8845 193.057 14.8745 193.035 14.8638L193.029 14.861L193.008 14.8519C193.007 14.8508 193.005 14.8499 193.003 14.8493C192.981 14.8396 192.959 14.8302 192.937 14.8211C192.932 14.8184 192.926 14.8161 192.92 14.8142V14.8142C192.903 14.8061 192.886 14.799 192.868 14.7928L192.859 14.789C192.839 14.7806 192.818 14.7727 192.798 14.7655L192.766 14.7539C192.745 14.7457 192.724 14.7382 192.703 14.7306C192.695 14.7272 192.686 14.7243 192.678 14.7215C192.669 14.7187 192.656 14.714 192.645 14.7108L192.61 14.6992C192.609 14.699 192.607 14.699 192.606 14.6992C192.603 14.698 192.601 14.6971 192.598 14.6964L192.591 14.6942C192.589 14.6931 192.587 14.6925 192.585 14.6923C192.562 14.6848 192.539 14.6772 192.516 14.671L192.511 14.6691L192.501 14.6659C192.474 14.6584 192.446 14.6499 192.419 14.6424C192.399 14.6367 192.38 14.6317 192.36 14.6267C192.341 14.6216 192.324 14.6169 192.305 14.6129C192.287 14.6088 192.263 14.6022 192.242 14.5971L192.226 14.5931L192.209 14.5896C192.192 14.5852 192.174 14.5818 192.156 14.578C192.149 14.5761 192.142 14.5749 192.134 14.5736L192.107 14.5679C192.093 14.5648 192.081 14.5623 192.067 14.5598H192.059L192.049 14.5576C192.031 14.5538 192.013 14.5507 191.994 14.5478L191.979 14.545C191.956 14.5409 191.931 14.5375 191.908 14.5337L191.867 14.5274L191.827 14.5215H191.825C191.771 14.5136 191.717 14.5076 191.662 14.5026C191.649 14.5008 191.637 14.4997 191.624 14.4992L191.607 14.4976L191.544 14.4926L191.5 14.4894L191.449 14.4866H191.415C191.413 14.4869 191.41 14.4869 191.408 14.4866C191.341 14.4835 191.273 14.4822 191.206 14.4822C189.962 14.4822 188.854 14.9762 188.135 15.7469C190.035 13.2614 193.032 11.6578 196.405 11.6578C202.139 11.655 206.795 16.305 206.795 22.0408Z" fill="#1F294E"/>
<path d="M41.3206 22.3763C41.1202 33.0347 32.4303 41.6709 21.5663 42.1269C9.89089 42.6172 0.0384235 33.4615 6.00816e-05 22.0688C-0.00982452 19.7719 0.38266 17.491 1.15977 15.3292C1.34299 14.8211 1.54571 14.3228 1.76792 13.8343C2.02069 13.4011 2.32302 12.9987 2.66883 12.6352C4.09614 11.1277 6.30832 10.1613 8.7903 10.1613C8.85005 10.1613 8.91011 10.1613 8.96891 10.1629C9.02772 10.1644 9.08778 10.1666 9.14752 10.1691L9.20538 10.1713C9.31104 10.1754 9.41701 10.1817 9.52235 10.1902L9.60505 10.1965C9.71731 10.2062 9.82894 10.2188 9.94026 10.232H9.94215C9.97674 10.2364 10.011 10.2417 10.0447 10.2461C10.1261 10.2574 10.2079 10.269 10.2893 10.2822C10.3245 10.2885 10.3591 10.2938 10.3934 10.2998L10.4053 10.3026C10.4997 10.3183 10.5912 10.3362 10.6833 10.3557C10.6909 10.3573 10.6987 10.3582 10.7069 10.3601C10.7144 10.3613 10.7217 10.3631 10.7289 10.3654L10.7525 10.3705L10.7742 10.3752L10.8239 10.3865C10.8475 10.3918 10.871 10.3972 10.8956 10.4034C10.9201 10.4097 10.9365 10.4132 10.9563 10.4176L11.017 10.4323L11.0522 10.4414C11.0912 10.4502 11.1302 10.46 11.1682 10.4703C11.2371 10.4889 11.3044 10.5083 11.3713 10.5278C11.3786 10.5297 11.3849 10.5322 11.3912 10.5341C11.4393 10.5482 11.4855 10.5624 11.5327 10.5774C11.55 10.5828 11.5669 10.5872 11.5833 10.5925L11.6641 10.6189C11.722 10.6384 11.7792 10.6588 11.837 10.6789C11.8606 10.687 11.8852 10.6949 11.9087 10.7037C11.926 10.71 11.943 10.7169 11.9613 10.7232C12.109 10.7787 12.255 10.8372 12.398 10.9C12.4116 10.9059 12.426 10.9113 12.4399 10.9176L12.487 10.9386C14.9266 12.0341 16.584 14.1829 16.584 16.6543C16.584 16.7136 16.584 16.7717 16.5812 16.8311C15.5728 15.6578 14.1797 14.9313 12.6417 14.9313C10.1035 14.9313 7.96203 16.9099 7.28973 19.6109C7.28061 19.6464 7.27243 19.6809 7.26426 19.7161C7.25891 19.7409 7.25262 19.7657 7.24696 19.7902C7.12783 20.3265 7.06804 20.8741 7.06867 21.4234C7.06867 21.4695 7.06867 21.5154 7.07024 21.5613L7.07307 21.6514V21.6602C7.07307 21.701 7.07118 21.7415 7.07118 21.783C7.06961 21.8395 7.06867 21.8964 7.06867 21.9535V21.9978C7.06867 29.3802 13.26 35.3534 20.8559 35.2514C28.177 35.1518 34.1523 29.3259 34.2542 22.1862C34.3598 14.7803 28.2336 8.74423 20.6619 8.74423C19.8826 8.74496 19.1048 8.81072 18.3365 8.94084C17.5903 9.06671 16.8557 9.25348 16.14 9.49925C16.1086 9.46941 16.0771 9.4402 16.0429 9.41099C15.9778 9.35195 15.9108 9.29447 15.8426 9.23794C15.8083 9.20968 15.7737 9.18141 15.7394 9.15409C15.6369 9.0718 15.5328 8.99234 15.425 8.91445C15.374 8.8774 15.3234 8.84191 15.2718 8.80767C15.2203 8.77344 15.1674 8.73607 15.1146 8.70246C15.0674 8.67105 15.0203 8.6431 14.9734 8.61327L14.9571 8.60259C14.9571 8.60259 14.9552 8.60259 14.9542 8.60259C14.947 8.59756 14.9388 8.59285 14.9316 8.58845L14.7976 8.509C14.7448 8.47759 14.6913 8.44618 14.6373 8.41792C14.619 8.40818 14.6008 8.39876 14.5838 8.38902C14.5294 8.35981 14.4731 8.33061 14.4178 8.3014L14.3074 8.24581C14.3055 8.24417 14.3032 8.24299 14.3008 8.24235L14.2656 8.22539C14.2521 8.21849 14.2376 8.21126 14.2238 8.20498C14.2099 8.1987 14.1986 8.19179 14.1857 8.18582C14.1543 8.17169 14.126 8.15724 14.0961 8.14499C14.0536 8.12458 14.0109 8.10542 13.9675 8.08658L13.9565 8.08155C13.942 8.07527 13.9285 8.06993 13.915 8.06365C13.9114 8.06162 13.9077 8.05984 13.904 8.05831C13.8606 8.03978 13.8178 8.02125 13.7735 8.00366C13.7626 7.99846 13.7513 7.99405 13.7398 7.99047V7.99047C13.7057 7.97487 13.6709 7.96104 13.6354 7.94902L13.6175 7.94179C13.5775 7.92515 13.5367 7.91039 13.4958 7.89594C13.476 7.88872 13.4562 7.88086 13.4351 7.87364C13.3936 7.85794 13.3518 7.84223 13.3093 7.82873C13.292 7.82151 13.2747 7.81648 13.2574 7.81114C13.2401 7.8058 13.214 7.79607 13.1923 7.78979C13.1706 7.7835 13.1471 7.77471 13.1235 7.7678C13.1211 7.76603 13.1183 7.76504 13.1153 7.76497C13.1104 7.7625 13.1052 7.76071 13.0999 7.75964C13.0955 7.75807 13.0898 7.75712 13.0854 7.75524C13.0814 7.75325 13.077 7.75207 13.0725 7.75178C13.0282 7.73671 12.982 7.72258 12.9367 7.71033C12.9333 7.70861 12.9297 7.70744 12.926 7.70687C12.9194 7.70439 12.9127 7.7023 12.9059 7.70059C12.8524 7.68552 12.798 7.66918 12.7436 7.65474C12.7046 7.64406 12.6656 7.63432 12.627 7.62333C12.5883 7.61234 12.5543 7.60386 12.5172 7.59601C12.4744 7.58533 12.4329 7.57559 12.3914 7.5646L12.36 7.55675C12.349 7.55392 12.3373 7.55235 12.3263 7.54953C12.2917 7.54167 12.2575 7.53445 12.2223 7.52754C12.2075 7.52409 12.193 7.52126 12.1785 7.51875L12.1232 7.50807C12.0971 7.50179 12.0716 7.49676 12.0455 7.49205L12.0292 7.48954C12.0219 7.48765 12.0153 7.48703 12.0081 7.48514C11.9729 7.47792 11.9367 7.47195 11.9006 7.46661L11.8691 7.46127C11.8223 7.45342 11.7748 7.4462 11.727 7.43929H11.7251L11.6455 7.42673C11.6191 7.42233 11.5927 7.41887 11.5657 7.41542C11.5645 7.41585 11.5631 7.41585 11.5619 7.41542C11.455 7.40034 11.3465 7.38872 11.2377 7.3793C11.2132 7.37553 11.1877 7.37396 11.1625 7.37208L11.1289 7.36957C11.088 7.3658 11.0471 7.36328 11.0056 7.35983L10.9176 7.35355L10.8163 7.34821L10.749 7.34475C10.7442 7.34521 10.7394 7.34521 10.7346 7.34475C10.6016 7.33847 10.4673 7.33596 10.3333 7.33596C7.86204 7.33596 5.65897 8.29449 4.23292 9.78976C8.04756 4.9098 14.0958 1.78391 20.8921 1.85551C32.3152 1.9758 41.5297 11.2382 41.3206 22.3763Z" fill="#1F294E"/>
<path d="M52.8931 0H50.5793V44H52.8931V0Z" fill="#1F294E"/>
<path d="M107.447 11.6757V32.4263H103.747L94.2602 17.8851V32.4263H90.56V15.1509C90.5567 14.6691 90.6866 14.1958 90.9355 13.7831C91.3902 13.0419 92.3467 12.0215 94.2602 11.6757V11.6861L94.2687 11.6757L103.747 25.7502V11.6757H107.447Z" fill="#1F294E"/>
<path d="M228 11.6352V32.4264H224.293L214.787 17.8565V32.4264H211.08V14.5789C211.08 14.5789 211.65 12.2021 214.787 11.6352V11.6456L214.796 11.6352L224.292 25.7368V11.6352H228Z" fill="#1F294E"/>
<path d="M124.321 28.6067V32.4263H113.495V14.7655C113.494 14.6434 113.515 14.5222 113.558 14.4078C113.778 13.8302 114.649 12.1295 117.331 11.6619V28.6067H124.321Z" fill="#1F294E"/>
<path d="M134.085 14.9298V20.3851H141.269V23.7273H134.085V29.0844H141.269V32.4263H130.247V14.8767C130.245 14.6018 130.306 14.3301 130.425 14.0821C130.768 13.3748 131.698 12.0495 133.956 11.6116C134.041 11.5954 134.128 11.5874 134.215 11.5878H141.269V14.9298H134.085Z" fill="#1F294E"/>
<path d="M162.201 18.5475C162.286 18.4678 162.323 17.203 162.185 16.513C161.567 13.4232 158.538 11.5326 155.14 12.1004C151.846 12.6503 149.711 15.7866 150.329 18.8764C150.472 19.5334 151.125 21.0886 152.471 22.2413C152.478 22.2452 152.484 22.2501 152.49 22.2557C153.424 23.0362 154.768 23.8449 155.515 24.2481C156.238 24.6479 159.721 26.4877 157.949 28.7006C157.949 28.7028 157.946 28.7066 157.945 28.7088C156.438 30.8686 152.004 29.5671 151.425 27.1488C151.416 27.1053 151.401 27.0631 151.381 27.0232C150.988 26.2751 149.152 27.3341 149.006 28.2726C148.997 28.3352 148.998 28.3989 149.01 28.461C149.141 29.1441 149.444 29.7801 149.88 30.3454C149.883 30.3497 149.886 30.3537 149.89 30.3573C151.006 31.7882 152.997 32.7402 155.265 32.7402C157.487 32.7402 159.441 31.8268 160.57 30.445C161.328 29.5778 161.964 27.6856 161.603 25.8863C161.407 25.0126 160.572 22.7993 158.133 21.4649C154.35 19.5739 153.841 18.8104 153.672 18.3308C153.666 18.3123 153.66 18.2935 153.656 18.2743C153.141 16.127 154.795 14.9034 156.761 15.1864C158.733 15.5099 159.541 16.5893 159.948 18.1019C160.065 18.502 161.834 18.882 162.201 18.5475Z" fill="#1F294E"/>
<path d="M180.479 18.234C180.564 18.1543 180.602 16.8895 180.464 16.1995C179.846 13.1097 176.816 11.2191 173.418 11.7869C170.124 12.3368 167.989 15.4731 168.607 18.5628C168.75 19.2199 169.403 20.7751 170.75 21.9277C170.756 21.9317 170.762 21.9366 170.768 21.9422C171.702 22.7226 173.047 23.5314 173.793 23.9346C174.516 24.3344 177.999 26.1742 176.227 28.3871C176.227 28.3893 176.224 28.3931 176.223 28.3953C174.716 30.5551 170.282 29.2536 169.703 26.8353C169.694 26.7918 169.679 26.7496 169.659 26.7097C169.266 25.9616 167.431 27.0206 167.284 27.9591C167.275 28.0217 167.276 28.0854 167.288 28.1475C167.419 28.8306 167.722 29.4666 168.159 30.0319C168.161 30.0361 168.164 30.0401 168.168 30.0438C169.285 31.4747 171.275 32.4266 173.543 32.4266C175.765 32.4266 177.719 31.5133 178.848 30.1315C179.606 29.2643 180.242 27.3721 179.881 25.5728C179.685 24.6991 178.85 22.4858 176.411 21.1514C172.63 19.2607 172.119 18.4972 171.95 18.0179C171.944 17.9994 171.938 17.9805 171.934 17.9614C171.419 15.8141 173.073 14.5905 175.039 14.8735C177.011 15.197 177.819 16.2765 178.227 17.789C178.343 18.1885 180.112 18.5685 180.479 18.234Z" fill="#1F294E"/>
</g>
<defs>
<clipPath id="clip0_1_577">
<rect width="228" height="44" fill="white"/>
</clipPath>
</defs>
</svg>
