<svg width="42" height="42" viewBox="0 0 42 42" fill="none" xmlns="http://www.w3.org/2000/svg">
<path d="M41.3206 21.3763C41.1203 32.0347 32.4303 40.6709 21.5663 41.1269C9.89089 41.6172 0.0384235 32.4615 6.00816e-05 21.0688C-0.00982452 18.7719 0.38266 16.491 1.15977 14.3292C1.34299 13.8211 1.54571 13.3228 1.76792 12.8343C2.02069 12.4011 2.32302 11.9987 2.66883 11.6352C4.09614 10.1277 6.30832 9.16129 8.7903 9.16129C8.85005 9.16129 8.91011 9.1613 8.96891 9.16287C9.02772 9.16444 9.08778 9.16663 9.14752 9.16915L9.20538 9.17135C9.31104 9.17543 9.41701 9.18171 9.52235 9.19019L9.60505 9.19647C9.71731 9.20621 9.82894 9.21877 9.94026 9.23196H9.94215C9.97674 9.23636 10.011 9.2417 10.0447 9.24609C10.1261 9.2574 10.2079 9.26902 10.2893 9.28221C10.3245 9.28849 10.3591 9.29383 10.3934 9.2998L10.4053 9.30262C10.4997 9.31833 10.5912 9.33623 10.6833 9.3557C10.6909 9.35727 10.6987 9.35822 10.7069 9.3601C10.7144 9.36128 10.7217 9.36307 10.7289 9.36544L10.7525 9.37046L10.7742 9.37517L10.8239 9.38648C10.8475 9.39182 10.871 9.39716 10.8956 9.40344C10.9201 9.40972 10.9365 9.41318 10.9563 9.41757L11.017 9.43233L11.0522 9.44144C11.0912 9.45024 11.1302 9.45997 11.1682 9.47034C11.2371 9.48887 11.3044 9.50834 11.3713 9.52781C11.3786 9.52969 11.3849 9.53221 11.3912 9.53409C11.4393 9.54822 11.4855 9.56236 11.5327 9.57743C11.55 9.58277 11.5669 9.58717 11.5833 9.59251L11.6641 9.61889C11.722 9.63836 11.7792 9.65878 11.837 9.67888C11.8606 9.68704 11.8852 9.69489 11.9087 9.70369C11.926 9.70997 11.943 9.71688 11.9613 9.72316C12.109 9.77875 12.255 9.83716 12.398 9.89998C12.4116 9.90595 12.426 9.91128 12.4399 9.91757L12.487 9.93861C14.9266 11.0341 16.584 13.1829 16.584 15.6543C16.584 15.7136 16.584 15.7717 16.5812 15.8311C15.5728 14.6578 14.1797 13.9313 12.6417 13.9313C10.1035 13.9313 7.96203 15.9099 7.28973 18.6109C7.28061 18.6464 7.27243 18.6809 7.26426 18.7161C7.25891 18.7409 7.25262 18.7657 7.24696 18.7902C7.12783 19.3265 7.06804 19.8741 7.06867 20.4234C7.06867 20.4695 7.06867 20.5154 7.07024 20.5613L7.07307 20.6514V20.6602C7.07307 20.701 7.07119 20.7415 7.07119 20.783C7.06961 20.8395 7.06867 20.8964 7.06867 20.9535V20.9978C7.06867 28.3802 13.26 34.3534 20.8559 34.2514C28.177 34.1518 34.1523 28.3259 34.2542 21.1862C34.3598 13.7803 28.2336 7.74423 20.6619 7.74423C19.8826 7.74496 19.1048 7.81072 18.3365 7.94084C17.5903 8.06671 16.8557 8.25348 16.14 8.49925C16.1086 8.46941 16.0771 8.4402 16.0429 8.41099C15.9778 8.35195 15.9108 8.29447 15.8426 8.23794C15.8083 8.20968 15.7737 8.18141 15.7394 8.15409C15.6369 8.0718 15.5328 7.99234 15.425 7.91445C15.374 7.8774 15.3234 7.84191 15.2718 7.80767C15.2203 7.77344 15.1674 7.73607 15.1146 7.70246C15.0674 7.67105 15.0203 7.6431 14.9734 7.61327L14.9571 7.60259C14.9571 7.60259 14.9552 7.60259 14.9542 7.60259C14.947 7.59756 14.9388 7.59285 14.9316 7.58845L14.7976 7.509C14.7448 7.47759 14.6913 7.44618 14.6373 7.41792C14.619 7.40818 14.6008 7.39876 14.5838 7.38902C14.5294 7.35981 14.4731 7.33061 14.4178 7.3014L14.3074 7.24581C14.3055 7.24417 14.3032 7.24299 14.3008 7.24235L14.2656 7.22539C14.2521 7.21849 14.2376 7.21126 14.2238 7.20498C14.2099 7.1987 14.1986 7.19179 14.1857 7.18582C14.1543 7.17169 14.126 7.15724 14.0961 7.14499C14.0536 7.12458 14.0109 7.10542 13.9675 7.08658L13.9565 7.08155C13.942 7.07527 13.9285 7.06993 13.915 7.06365C13.9114 7.06162 13.9077 7.05983 13.904 7.05831C13.8606 7.03978 13.8178 7.02125 13.7735 7.00366C13.7626 6.99846 13.7513 6.99405 13.7398 6.99047C13.7057 6.97487 13.6709 6.96104 13.6354 6.94902L13.6175 6.94179C13.5775 6.92515 13.5367 6.91039 13.4958 6.89594C13.476 6.88872 13.4562 6.88086 13.4351 6.87364C13.3936 6.85794 13.3518 6.84223 13.3093 6.82873C13.292 6.82151 13.2747 6.81648 13.2574 6.81114C13.2401 6.8058 13.214 6.79607 13.1923 6.78979C13.1706 6.7835 13.1471 6.77471 13.1235 6.7678C13.1211 6.76603 13.1183 6.76504 13.1153 6.76497C13.1104 6.7625 13.1052 6.76071 13.0999 6.75964C13.0955 6.75807 13.0898 6.75712 13.0854 6.75524C13.0814 6.75325 13.077 6.75207 13.0725 6.75178C13.0282 6.73671 12.982 6.72258 12.9367 6.71033C12.9333 6.70861 12.9297 6.70744 12.926 6.70687C12.9194 6.70439 12.9127 6.7023 12.9059 6.70059C12.8524 6.68552 12.798 6.66918 12.7436 6.65474C12.7046 6.64406 12.6656 6.63432 12.627 6.62333C12.5883 6.61234 12.5543 6.60386 12.5172 6.59601C12.4744 6.58533 12.4329 6.57559 12.3914 6.5646L12.36 6.55675C12.349 6.55392 12.3373 6.55235 12.3263 6.54953C12.2917 6.54167 12.2575 6.53445 12.2223 6.52754C12.2075 6.52409 12.193 6.52126 12.1785 6.51875L12.1232 6.50807C12.0971 6.50179 12.0716 6.49676 12.0455 6.49205L12.0292 6.48954C12.0219 6.48765 12.0153 6.48703 12.0081 6.48514C11.9729 6.47792 11.9367 6.47195 11.9006 6.46661L11.8691 6.46127C11.8223 6.45342 11.7748 6.4462 11.727 6.43929H11.7251L11.6455 6.42673C11.6191 6.42233 11.5927 6.41887 11.5657 6.41542C11.5645 6.41585 11.5631 6.41585 11.5619 6.41542C11.455 6.40034 11.3465 6.38872 11.2377 6.3793C11.2132 6.37553 11.1877 6.37396 11.1625 6.37208L11.1289 6.36957C11.088 6.3658 11.0471 6.36328 11.0056 6.35983L10.9176 6.35355L10.8163 6.34821L10.749 6.34475C10.7442 6.34521 10.7394 6.34521 10.7346 6.34475C10.6016 6.33847 10.4673 6.33596 10.3333 6.33596C7.86204 6.33596 5.65897 7.29449 4.23292 8.78976C8.04756 3.9098 14.0958 0.783907 20.8921 0.855514C32.3152 0.975801 41.5297 10.2382 41.3206 21.3763Z" fill="#1F294E"/>
</svg>
